<?xml version="1.0" encoding="UTF-8"?>
<svg id="_1" data-name="1" xmlns="http://www.w3.org/2000/svg" xmlns:xlink="http://www.w3.org/1999/xlink" viewBox="0 0 1280 1226.6">
  <defs>
    <style>
      .cls-1 {
        fill: url(#linear-gradient-3);
        stroke: url(#linear-gradient-4);
      }

      .cls-1, .cls-2, .cls-3, .cls-4, .cls-5, .cls-6, .cls-7 {
        stroke-miterlimit: 10;
      }

      .cls-1, .cls-2, .cls-3, .cls-4, .cls-6, .cls-7 {
        stroke-width: 1.5px;
      }

      .cls-8, .cls-5 {
        fill: #21409a;
      }

      .cls-2 {
        fill: url(#linear-gradient-7);
        stroke: url(#linear-gradient-8);
      }

      .cls-3 {
        fill: url(#linear-gradient);
        stroke: url(#linear-gradient-2);
      }

      .cls-9 {
        fill: #ed1c24;
      }

      .cls-4 {
        fill: url(#linear-gradient-9);
        stroke: url(#linear-gradient-10);
      }

      .cls-5 {
        stroke: #21409a;
      }

      .cls-6 {
        fill: url(#linear-gradient-5);
        stroke: url(#linear-gradient-6);
      }

      .cls-7 {
        fill: url(#linear-gradient-11);
        stroke: url(#linear-gradient-12);
      }
    </style>
    <linearGradient id="linear-gradient" x1="352.21" y1="997.74" x2="352.21" y2="895.26" gradientUnits="userSpaceOnUse">
      <stop offset="0" stop-color="#fff"/>
      <stop offset=".47" stop-color="#21409a"/>
      <stop offset=".55" stop-color="#fff"/>
    </linearGradient>
    <linearGradient id="linear-gradient-2" x1="352.21" y1="998.49" x2="352.21" y2="894.51" gradientUnits="userSpaceOnUse">
      <stop offset=".45" stop-color="#fff"/>
      <stop offset=".53" stop-color="#21409a"/>
      <stop offset="1" stop-color="#fff"/>
    </linearGradient>
    <linearGradient id="linear-gradient-3" x1="458.92" y1="978.23" x2="458.92" y2="867.56" xlink:href="#linear-gradient"/>
    <linearGradient id="linear-gradient-4" x1="458.92" y1="978.98" x2="458.92" y2="866.81" xlink:href="#linear-gradient-2"/>
    <linearGradient id="linear-gradient-5" x1="576.77" y1="961.36" x2="576.77" y2="855.31" xlink:href="#linear-gradient"/>
    <linearGradient id="linear-gradient-6" x1="576.77" y1="962.11" x2="576.77" y2="854.56" xlink:href="#linear-gradient-2"/>
    <linearGradient id="linear-gradient-7" x1="698.41" y1="963.39" x2="698.41" y2="858.64" xlink:href="#linear-gradient"/>
    <linearGradient id="linear-gradient-8" x1="698.41" y1="964.14" x2="698.41" y2="857.89" xlink:href="#linear-gradient-2"/>
    <linearGradient id="linear-gradient-9" x1="819.77" y1="975" x2="819.77" y2="875.25" xlink:href="#linear-gradient"/>
    <linearGradient id="linear-gradient-10" x1="819.77" y1="975.75" x2="819.77" y2="874.5" xlink:href="#linear-gradient-2"/>
    <linearGradient id="linear-gradient-11" x1="923.66" y1="1005.05" x2="923.66" y2="893.97" xlink:href="#linear-gradient"/>
    <linearGradient id="linear-gradient-12" x1="923.66" y1="1005.8" x2="923.66" y2="893.22" xlink:href="#linear-gradient-2"/>
  </defs>
  <path class="cls-8" d="M637.92,1117.89c-56.44,0-110.73-9.34-161.43-26.51l9.47,28.41c48.16,14.48,99.16,22.32,151.96,22.32,49.55,0,97.52-6.87,143.03-19.67l5.12-26.76c-46.87,14.42-96.62,22.21-148.15,22.21Z"/>
  <path class="cls-8" d="M637.92,84.49c-291.58,0-528.8,237.22-528.8,528.81,0,95.65,25.53,185.45,70.13,262.95l5.55-41.11c-32.93-66.99-51.47-142.29-51.47-221.85,0-278.23,226.36-504.59,504.59-504.59s504.59,226.36,504.59,504.59c0,78.16-17.87,152.22-49.73,218.32l3.74,44.57c44.6-77.49,70.21-167.24,70.21-262.89,0-291.59-237.22-528.81-528.81-528.81Z"/>
  <path class="cls-9" d="M637.92,0C299.75,0,24.62,275.13,24.62,613.3c0,99.66,24.45,198.53,70.7,286.07l25.65-3.55c-1.14-2.09-2.34-4.14-3.46-6.24-44.92-84.44-68.67-179.98-68.67-276.27C48.84,288.48,313.1,24.22,637.92,24.22s589.09,264.26,589.09,589.08c0,99.32-24.78,192.93-68.37,275.09l25.39,3.7c42.91-83.7,67.2-178.45,67.2-278.8C1251.23,275.13,976.1,0,637.92,0Z"/>
  <path class="cls-9" d="M637.92,1202.38c-53.84,0-106.53-7.3-156.9-21.18l-35.71,14.43c61.16,20.19,126.03,30.97,192.61,30.97s130.57-10.68,190.59-30.36l-32.7-15.38c-50.27,14-103.21,21.52-157.89,21.52Z"/>
  <path class="cls-8" d="M1044.38,821.78c-21.44-12.34-223.36-69.15-406.46-68.49-156.75,.57-402.36,50.39-406.32,70.76-32.51,166.91,13.31,273.9,83.03,271.49,58.99-2.04,253.5-41.71,322.41-40.19,51.65,1.14,237.71,33.77,329.25,38.55,106.64,5.57,90.04-265.25,78.09-272.13Z"/>
  <path class="cls-8" d="M457.62,1148.96c3.69-12.1-11.22-44.48-21.32-47.29-10.92-3.05-87.72,15.92-137.55,14.62-58.34-1.52-82.53-67.45-90.44-92.06-16.17-50.33-7.75-113.16-11.94-112.97-85.99,3.94-191.3,30.17-196.01,42.03-9.02,22.69,155.23,114.91,149.65,123.83-22.09,35.34-92.4,137.89-75.45,145.85,35.12,16.49,370.09-31.46,383.06-74.01Z"/>
  <path class="cls-8" d="M1278.74,953.11c-32.43-29.84-137.26-38.51-199.09-39.98-4.01-.1,6.04,62.83-20.23,130.42-9.74,25.06-33.31,74.51-85.92,73.65-55.58-.91-130.24-17.34-140.44-16.97-10.32,.37-18.95,43.46-17.37,50.18,9.51,40.62,340.31,83.11,378.03,65.34,17.44-8.21-62.98-106.35-70.31-132.18-3.39-11.94,173.12-114.1,155.33-130.46Z"/>
  <path class="cls-5" d="M704.93,236.07c-17.55-3.84-23.35-.45-24.83,.07-5.99,2.1-18.19,8.76-29.73,25.35-11.37,16.36-51.25,59.97-78.54,139.87-3.81,2.01-220-77.05-270.67,9.34-40.89-5.36-53.19,70.26-16.34,58.51-5.51,38.24-2.7,125.67,107.38,89.41,13-4.28,56.82,56.93,113.43,43.19,34.59-8.4,60.37-52.27,94.6-23.17,85.82-36.77,81.74-218.53,88.24-244.31,12.24,12.07,69.21,43.93,57-6-.33-1.36-1.87-5.34-3.12-11.16-1.69-5.63,24.39-18.95,9.9-46.6-.6-1.14-6.17-13.04-6.91-14.22-3.17-3.06,17.29-16.92,20.29-22.85,1.7-3.37-24.6-10.79-35.94,12.44l-3.75-2.5c.89-20.91,14.62-25.6,10.74-28.91-9.95-8.49-32.81,13.34-31.75,21.55Z"/>
  <path class="cls-5" d="M348.24,739.54c4.61-.21,19.07-2.77,19.07-2.77,10.4-2.02,28.77-4.23,29.75-5.46,2.82-3.52-11.08-10.46-11.08-10.46-1.56-.75,52.07-127.63,45.55-143.47-8.07-19.6,50.42-12.28,41.52,3.29-10.88,19.01-13.93,79.82-13.93,79.82,0,0,4.49,63.88,5.66,63,4.18-.59,27.1-1.68,29.26-3.25,2.38-1.73-11.96-6.01-11.96-6.01-5.69-.79,52.26-107.01,53.31-111.06-4.89-2.46-12.47,29.88-9.17,60.79,2.78,26.02-.34,52.44,4.5,53.4,2.81,.55,24.75-1.39,25.39-1.52,2.97-.59-10.29-5.95-10.98-7.4-4.54-9.43,62.09-131.78,71.12-162.05l-322.82-15.37c-4.07,22.41,45.1,42.89,51.11,102.62,1.31,12.97-10.93,31.6-10.68,31.49,4.98,24.83,13.86,74.45,14.37,74.42Z"/>
  <path class="cls-5" d="M772.66,393.35c-30.15-6.89-24.76,19.53,8.67,44.74,2.87,2.26-23.33,74.36-4.95,131.44,12.28,39.21,29.18,42.08,51.96,50.44,48.28,17.72,168.36-13.49,150.98-52.09,3.72-9.89,2.19-71.49-128.95-35.22-18.5-29.26-32.6-75.56-30.04-88.57,16.81-19.13,13.27-26.64,8.95-35.52-9.97-20.53-46.13-39.72-56.63-15.23Z"/>
  <path class="cls-5" d="M790.56,402.3c17.69-4.75,33.25-29.04,35.01-29.16,2.26-.15,6.42,21.88-6.82,27.63l2.14,18.15c16.83,1.45,25.28-40.86,17.31-33.31-34.04,32.25-18.94,26.87-36.45,35.17l-11.18-18.48Z"/>
  <path class="cls-5" d="M797.54,580.95s34.01,75.55,21.98,136.82c-.61-.66-10.26,2.02-11.63,4.46-.32,.57,18.31,1.77,25.22,2.19l9.38-55.31s16.15-21.99,19.35-53.47c3.2-31.47,17.63-16.7,17.63-16.7-5.04-2.87,5.47,127.15,5.47,127.15-1.31-.59-12.87,2.04-10,2.87,2.81,.81,21.12,2.81,22.01,2.81l17.35-59.32c-7.89-24.02,10.67-67.72,15.34-69.97,43.52-21-132.09-21.55-132.09-21.55Z"/>
  <path class="cls-5" d="M978.59,574.24c-2.5,23.96-15.06,35.91-20.17,39.94-25.83,20.43-13.25,47.61-11.79,53.16l-19.52,68.62c-10.84-1.42-20.74-1.7-18.81-3.72,1.09-1.14,5.66-3.93,7.18-3.59l3.17-55.52c-.21,.52-17.26-10.34,1.46-59.15,17.13-44.66,58.48-39.75,58.48-39.75Z"/>
  <path class="cls-5" d="M973.95,542.36c18.03,.37,31.06,31.26,6.85,35.91"/>
  <g>
    <g>
      <path d="M349.38,962.83l47-9.24c1.01-.2,1.96,0,2.84,.59,.88,.59,1.42,1.39,1.62,2.4l4.09,20.81c.2,1.01,0,1.96-.59,2.84-.59,.88-1.39,1.42-2.4,1.62l-80.49,15.82c-1.01,.2-1.96,0-2.84-.59s-1.42-1.39-1.62-2.4l-17.5-89.04c-.2-1.01,0-1.95,.59-2.84,.59-.88,1.39-1.42,2.4-1.62l29.77-5.85c1.01-.2,1.96,0,2.84,.59,.88,.59,1.42,1.39,1.62,2.4l12.68,64.51Z"/>
      <path d="M450.75,946.09l55.38-8.61c1.02-.16,1.95,.08,2.81,.7,.86,.63,1.36,1.45,1.52,2.46l3.04,19.57c.16,1.02-.08,1.96-.7,2.81-.63,.86-1.45,1.36-2.46,1.52l-87.72,13.63c-1.02,.16-1.95-.07-2.81-.7-.86-.62-1.36-1.45-1.52-2.46l-13.94-89.67c-.16-1.02,.08-1.95,.7-2.81,.62-.85,1.45-1.36,2.46-1.52l86.33-13.42c1.02-.16,1.95,.08,2.81,.7,.85,.63,1.36,1.45,1.52,2.46l3.04,19.57c.16,1.02-.08,1.96-.7,2.81-.63,.86-1.45,1.36-2.46,1.52l-53.99,8.39,1.36,8.75,46.36-7.21c1.02-.16,1.95,.08,2.81,.7,.85,.63,1.36,1.45,1.52,2.46l2.8,18.05c.16,1.02-.08,1.96-.7,2.81-.63,.86-1.45,1.36-2.46,1.52l-46.36,7.2,1.36,8.74Z"/>
      <path d="M597.21,857.37l25.62-2.05c1.03-.08,1.94,.22,2.75,.91,.81,.69,1.25,1.54,1.33,2.57l7.25,90.45c.08,1.03-.22,1.94-.91,2.75-.69,.81-1.54,1.25-2.57,1.33l-25.34,2.03c-1.03,.08-1.94-.22-2.75-.91-.81-.69-1.25-1.54-1.33-2.57l-3.48-43.41-8.61,20.98c-.47,1.17-1.24,2.1-2.31,2.79-1.07,.7-2.17,1.09-3.29,1.18l-9.52,.76c-1.59,.13-2.93-.19-4.02-.95-1.1-.76-1.81-1.45-2.14-2.08l-11.83-19.34,3.48,43.41c.08,1.03-.22,1.94-.91,2.75-.69,.81-1.54,1.25-2.57,1.33l-25.34,2.03c-1.03,.08-1.94-.22-2.75-.91-.81-.69-1.25-1.54-1.33-2.57l-7.24-90.45c-.08-1.02,.22-1.94,.91-2.75,.69-.81,1.54-1.25,2.57-1.33l25.62-2.05c2.61-.21,4.72,.89,6.32,3.3l21.04,32.13,15.65-35.07c1.2-2.63,3.11-4.05,5.72-4.26Z"/>
      <path d="M671.29,955.9l-26.43-2.47c-.84-.08-1.53-.45-2.08-1.11-.55-.66-.8-1.27-.75-1.84,.05-.56,.14-.97,.26-1.24l38.83-86.52c1.13-3,3.37-4.34,6.73-4.03l38.88,3.63c3.35,.31,5.31,2.05,5.86,5.2l22.15,92.22c.07,.29,.08,.71,.03,1.27-.06,.56-.42,1.11-1.08,1.66-.66,.55-1.41,.79-2.25,.71l-26.43-2.47c-2.98-.28-4.94-2.06-5.85-5.34l-2.58-10.12-34.12-3.19-4.42,9.47c-1.5,3.06-3.75,4.44-6.74,4.17Zm40.69-38.39l-7.22-30.02-12.64,28.16,19.86,1.85Z"/>
      <path d="M807.24,912.37l-3.47,20.96c-.59,3.58,.22,6.54,2.45,8.89,2.22,2.34,5.39,3.85,9.5,4.53,4.11,.68,7.19,.56,9.24-.35,2.05-.92,3.9-2.45,5.53-4.6s3.47-3.06,5.51-2.72l29.93,4.95c.83,.14,1.49,.55,2,1.24,.5,.69,.69,1.45,.55,2.26-1.4,8.45-6.75,15.51-16.03,21.16-4.64,2.78-10.51,4.69-17.61,5.7-7.1,1.02-15.22,.77-24.37-.74-9.14-1.51-17.26-4.26-24.33-8.26-7.08-3.99-12.45-9.51-16.13-16.55-3.68-7.04-4.76-15.11-3.26-24.21l2.64-15.95c1.5-9.1,5.14-16.41,10.89-21.93,10.8-10.24,26.6-13.64,47.39-10.21,8.41,1.39,15.81,3.71,22.2,6.97,6.39,3.25,11.33,6.94,14.83,11.07,6.97,8.34,9.76,16.74,8.36,25.2-.13,.82-.55,1.47-1.25,1.97-.7,.49-1.46,.67-2.29,.53l-29.93-4.95c-2.03-.34-3.48-1.79-4.34-4.35-.86-2.57-2.11-4.61-3.75-6.14-1.65-1.53-4.53-2.63-8.64-3.31-4.11-.68-7.6-.27-10.45,1.23-2.86,1.5-4.58,4.04-5.18,7.63Z"/>
      <path d="M896.65,989.07l-26.03-5.25c-.83-.17-1.48-.61-1.95-1.32s-.66-1.35-.55-1.9c.11-.55,.24-.95,.39-1.21l47.77-81.93c1.44-2.86,3.81-3.96,7.11-3.29l38.28,7.72c3.3,.66,5.06,2.6,5.28,5.79l12.27,94.04c.04,.29,0,.71-.11,1.27-.11,.55-.53,1.07-1.24,1.54-.72,.48-1.49,.63-2.31,.46l-26.03-5.25c-2.94-.59-4.69-2.57-5.25-5.93l-1.5-10.33-33.6-6.78-5.39,8.94c-1.82,2.88-4.2,4.02-7.14,3.43Zm44.52-33.87l-4-30.61-15.55,26.67,19.55,3.94Z"/>
    </g>
    <g>
      <path class="cls-3" d="M349.38,962.83l47-9.24c1.01-.2,1.96,0,2.84,.59,.88,.59,1.42,1.39,1.62,2.4l4.09,20.81c.2,1.01,0,1.96-.59,2.84-.59,.88-1.39,1.42-2.4,1.62l-80.49,15.82c-1.01,.2-1.96,0-2.84-.59s-1.42-1.39-1.62-2.4l-17.5-89.04c-.2-1.01,0-1.95,.59-2.84,.59-.88,1.39-1.42,2.4-1.62l29.77-5.85c1.01-.2,1.96,0,2.84,.59,.88,.59,1.42,1.39,1.62,2.4l12.68,64.51Z"/>
      <path class="cls-1" d="M450.75,946.09l55.38-8.61c1.02-.16,1.95,.08,2.81,.7,.86,.63,1.36,1.45,1.52,2.46l3.04,19.57c.16,1.02-.08,1.96-.7,2.81-.63,.86-1.45,1.36-2.46,1.52l-87.72,13.63c-1.02,.16-1.95-.07-2.81-.7-.86-.62-1.36-1.45-1.52-2.46l-13.94-89.67c-.16-1.02,.08-1.95,.7-2.81,.62-.85,1.45-1.36,2.46-1.52l86.33-13.42c1.02-.16,1.95,.08,2.81,.7,.85,.63,1.36,1.45,1.52,2.46l3.04,19.57c.16,1.02-.08,1.96-.7,2.81-.63,.86-1.45,1.36-2.46,1.52l-53.99,8.39,1.36,8.75,46.36-7.21c1.02-.16,1.95,.08,2.81,.7,.85,.63,1.36,1.45,1.52,2.46l2.8,18.05c.16,1.02-.08,1.96-.7,2.81-.63,.86-1.45,1.36-2.46,1.52l-46.36,7.2,1.36,8.74Z"/>
      <path class="cls-6" d="M597.21,857.37l25.62-2.05c1.03-.08,1.94,.22,2.75,.91,.81,.69,1.25,1.54,1.33,2.57l7.25,90.45c.08,1.03-.22,1.94-.91,2.75-.69,.81-1.54,1.25-2.57,1.33l-25.34,2.03c-1.03,.08-1.94-.22-2.75-.91-.81-.69-1.25-1.54-1.33-2.57l-3.48-43.41-8.61,20.98c-.47,1.17-1.24,2.1-2.31,2.79-1.07,.7-2.17,1.09-3.29,1.18l-9.52,.76c-1.59,.13-2.93-.19-4.02-.95-1.1-.76-1.81-1.45-2.14-2.08l-11.83-19.34,3.48,43.41c.08,1.03-.22,1.94-.91,2.75-.69,.81-1.54,1.25-2.57,1.33l-25.34,2.03c-1.03,.08-1.94-.22-2.75-.91-.81-.69-1.25-1.54-1.33-2.57l-7.24-90.45c-.08-1.02,.22-1.94,.91-2.75,.69-.81,1.54-1.25,2.57-1.33l25.62-2.05c2.61-.21,4.72,.89,6.32,3.3l21.04,32.13,15.65-35.07c1.2-2.63,3.11-4.05,5.72-4.26Z"/>
      <path class="cls-2" d="M671.29,955.9l-26.43-2.47c-.84-.08-1.53-.45-2.08-1.11-.55-.66-.8-1.27-.75-1.84,.05-.56,.14-.97,.26-1.24l38.83-86.52c1.13-3,3.37-4.34,6.73-4.03l38.88,3.63c3.35,.31,5.31,2.05,5.86,5.2l22.15,92.22c.07,.29,.08,.71,.03,1.27-.06,.56-.42,1.11-1.08,1.66-.66,.55-1.41,.79-2.25,.71l-26.43-2.47c-2.98-.28-4.94-2.06-5.85-5.34l-2.58-10.12-34.12-3.19-4.42,9.47c-1.5,3.06-3.75,4.44-6.74,4.17Zm40.69-38.39l-7.22-30.02-12.64,28.16,19.86,1.85Z"/>
      <path class="cls-4" d="M807.24,912.37l-3.47,20.96c-.59,3.58,.22,6.54,2.45,8.89,2.22,2.34,5.39,3.85,9.5,4.53,4.11,.68,7.19,.56,9.24-.35,2.05-.92,3.9-2.45,5.53-4.6s3.47-3.06,5.51-2.72l29.93,4.95c.83,.14,1.49,.55,2,1.24,.5,.69,.69,1.45,.55,2.26-1.4,8.45-6.75,15.51-16.03,21.16-4.64,2.78-10.51,4.69-17.61,5.7-7.1,1.02-15.22,.77-24.37-.74-9.14-1.51-17.26-4.26-24.33-8.26-7.08-3.99-12.45-9.51-16.13-16.55-3.68-7.04-4.76-15.11-3.26-24.21l2.64-15.95c1.5-9.1,5.14-16.41,10.89-21.93,10.8-10.24,26.6-13.64,47.39-10.21,8.41,1.39,15.81,3.71,22.2,6.97,6.39,3.25,11.33,6.94,14.83,11.07,6.97,8.34,9.76,16.74,8.36,25.2-.13,.82-.55,1.47-1.25,1.97-.7,.49-1.46,.67-2.29,.53l-29.93-4.95c-2.03-.34-3.48-1.79-4.34-4.35-.86-2.57-2.11-4.61-3.75-6.14-1.65-1.53-4.53-2.63-8.64-3.31-4.11-.68-7.6-.27-10.45,1.23-2.86,1.5-4.58,4.04-5.18,7.63Z"/>
      <path class="cls-7" d="M896.65,989.07l-26.03-5.25c-.83-.17-1.48-.61-1.95-1.32s-.66-1.35-.55-1.9c.11-.55,.24-.95,.39-1.21l47.77-81.93c1.44-2.86,3.81-3.96,7.11-3.29l38.28,7.72c3.3,.66,5.06,2.6,5.28,5.79l12.27,94.04c.04,.29,0,.71-.11,1.27-.11,.55-.53,1.07-1.24,1.54-.72,.48-1.49,.63-2.31,.46l-26.03-5.25c-2.94-.59-4.69-2.57-5.25-5.93l-1.5-10.33-33.6-6.78-5.39,8.94c-1.82,2.88-4.2,4.02-7.14,3.43Zm44.52-33.87l-4-30.61-15.55,26.67,19.55,3.94Z"/>
    </g>
  </g>
</svg>